# xmcd
#
# Track frame offsets:
# 182
# 16535
# 28532
# 31180
# 38437
# 50205
# 66102
# 74132
# 93705
# 107022
# 121980
# 130305
# 147780
# 161955
# 174257
# 187462
#
# Disc length: 2688 seconds
#
# Revision: 0
# Processed by: cddbd v1.4PL0 Copyright (c) Steve Scherf et al.
# Submitted via: Audion 2.5.0 (http://www.panic.com/audion/)
#
DISCID=e40a7e10
DTITLE=The Skidmore Bandsnatchers - Random?
DYEAR=1900
DGENRE=
TTITLE0=Zombie Jamboree
TTITLE1=Sloop John B 
TTITLE2=Random
TTITLE3=Men
TTITLE4=Let Me Take You Home Tonight
TTITLE5=Bop Till You Drop
TTITLE6=Rubber Ducky
TTITLE7=Stiletto
TTITLE8=Good Times Roll
TTITLE9=This Island Earth
TTITLE10=I Will
TTITLE11=The Boy From New York City
TTITLE12=L-Y
TTITLE13=For What It's Worth
TTITLE14=Crazy Little Thing Called Love
TTITLE15=Up On The Roof
EXTD=
EXTT0=
EXTT1=
EXTT2=
EXTT3=
EXTT4=
EXTT5=
EXTT6=
EXTT7=
EXTT8=
EXTT9=
EXTT10=
EXTT11=
EXTT12=
EXTT13=
EXTT14=
EXTT15=
PLAYORDER=
